<svg xmlns="http://www.w3.org/2000/svg" xmlns:xlink="http://www.w3.org/1999/xlink" width="500" zoomAndPan="magnify" viewBox="0 0 375 374.999991" height="500" preserveAspectRatio="xMidYMid meet" version="1.0"><defs><g/><clipPath id="a216daaa46"><path d="M 92.84375 37.5 L 246 37.5 L 246 190 L 92.84375 190 Z M 92.84375 37.5 " clip-rule="nonzero"/></clipPath><clipPath id="191311456d"><path d="M 129 120 L 281.84375 120 L 281.84375 226.5 L 129 226.5 Z M 129 120 " clip-rule="nonzero"/></clipPath></defs><rect x="-37.5" width="450" fill="#ffffff" y="-37.499999" height="449.999989" fill-opacity="1"/><rect x="-37.5" width="450" fill="#ffffff" y="-37.499999" height="449.999989" fill-opacity="1"/><rect x="-37.5" width="450" fill="#f5f5f5" y="-37.499999" height="449.999989" fill-opacity="1"/><g fill="#ff1616" fill-opacity="1"><g transform="translate(103.31824, 305.524478)"><g><path d="M 27.855469 -26.5625 L 27.855469 -18.246094 L 41.175781 -18.246094 C 38.914062 -13.160156 33.910156 -9.769531 27.933594 -9.769531 C 19.78125 -9.769531 13.484375 -16.066406 13.484375 -24.222656 C 13.484375 -32.375 19.78125 -38.671875 27.933594 -38.671875 C 33.667969 -38.671875 38.351562 -35.605469 40.773438 -31.003906 L 49.976562 -35.765625 C 45.777344 -43.679688 37.460938 -49.089844 27.933594 -49.089844 C 14.128906 -49.089844 3.066406 -37.945312 3.066406 -24.222656 C 3.066406 -10.496094 14.128906 0.644531 27.933594 0.644531 C 41.660156 0.644531 52.800781 -10.496094 52.800781 -24.222656 L 52.800781 -26.5625 Z M 27.855469 -26.5625 "/></g></g></g><g fill="#ff1616" fill-opacity="1"><g transform="translate(167.32076, 305.524478)"><g><path d="M 34.394531 0 L 45.777344 0 L 28.339844 -48.441406 L 16.390625 -48.441406 L -1.050781 0 L 10.335938 0 L 13.320312 -9.125 L 31.40625 -9.125 Z M 16.148438 -18.003906 L 22.363281 -37.21875 L 28.582031 -18.003906 Z M 16.148438 -18.003906 "/></g></g></g><g fill="#ff1616" fill-opacity="1"><g transform="translate(220.182882, 305.524478)"><g><path d="M 30.035156 -19.941406 C 35.765625 -21.636719 39.804688 -26.964844 39.804688 -33.585938 C 39.804688 -41.820312 33.667969 -48.441406 25.351562 -48.441406 L 4.761719 -48.441406 L 4.761719 0 L 15.421875 0 L 15.421875 -18.730469 L 19.699219 -18.730469 L 31.648438 0 L 43.597656 0 Z M 23.738281 -27.53125 L 15.421875 -27.53125 L 15.421875 -38.996094 L 23.738281 -38.996094 C 27.128906 -38.996094 29.628906 -36.574219 29.628906 -33.265625 C 29.628906 -29.871094 27.128906 -27.53125 23.738281 -27.53125 Z M 23.738281 -27.53125 "/></g></g></g><g fill="#ff1616" fill-opacity="1"><g transform="translate(104.618632, 352.961871)"><g><path d="M 5.007812 0.179688 C 7.285156 0.179688 9.140625 -1.183594 9.140625 -3.53125 C 9.140625 -8.089844 2.613281 -6.972656 2.613281 -10.167969 C 2.613281 -11.511719 3.710938 -12.160156 4.960938 -12.160156 C 5.988281 -12.160156 6.839844 -11.734375 7.375 -10.972656 L 8.492188 -11.914062 C 7.753906 -12.851562 6.460938 -13.589844 4.917969 -13.589844 C 2.859375 -13.589844 1.183594 -12.246094 1.183594 -10.058594 C 1.183594 -5.742188 7.710938 -6.816406 7.710938 -3.488281 C 7.710938 -2.054688 6.527344 -1.25 5.027344 -1.25 C 3.507812 -1.25 2.414062 -2.078125 1.945312 -3.308594 L 0.648438 -2.546875 C 1.339844 -0.894531 3.015625 0.179688 5.007812 0.179688 Z M 5.007812 0.179688 "/></g></g></g><g fill="#ff1616" fill-opacity="1"><g transform="translate(118.533559, 352.961871)"><g><path d="M 10.816406 -13.410156 L 9.050781 -13.410156 L 5.429688 -7.84375 L 1.808594 -13.410156 L 0.0234375 -13.410156 L 4.714844 -6.347656 L 4.714844 0 L 6.144531 0 L 6.144531 -6.371094 Z M 10.816406 -13.410156 "/></g></g></g><g fill="#ff1616" fill-opacity="1"><g transform="translate(133.498413, 352.961871)"><g><path d="M 5.007812 0.179688 C 7.285156 0.179688 9.140625 -1.183594 9.140625 -3.53125 C 9.140625 -8.089844 2.613281 -6.972656 2.613281 -10.167969 C 2.613281 -11.511719 3.710938 -12.160156 4.960938 -12.160156 C 5.988281 -12.160156 6.839844 -11.734375 7.375 -10.972656 L 8.492188 -11.914062 C 7.753906 -12.851562 6.460938 -13.589844 4.917969 -13.589844 C 2.859375 -13.589844 1.183594 -12.246094 1.183594 -10.058594 C 1.183594 -5.742188 7.710938 -6.816406 7.710938 -3.488281 C 7.710938 -2.054688 6.527344 -1.25 5.027344 -1.25 C 3.507812 -1.25 2.414062 -2.078125 1.945312 -3.308594 L 0.648438 -2.546875 C 1.339844 -0.894531 3.015625 0.179688 5.007812 0.179688 Z M 5.007812 0.179688 "/></g></g></g><g fill="#ff1616" fill-opacity="1"><g transform="translate(147.413341, 352.961871)"><g><path d="M 9.050781 -13.410156 L 0.199219 -13.410156 L 0.199219 -11.980469 L 3.910156 -11.980469 L 3.910156 0 L 5.339844 0 L 5.339844 -11.980469 L 9.050781 -11.980469 Z M 9.050781 -13.410156 "/></g></g></g><g fill="#ff1616" fill-opacity="1"><g transform="translate(160.792136, 352.961871)"><g><path d="M 9.074219 -12.023438 L 9.074219 -13.410156 L 1.742188 -13.410156 L 1.742188 0 L 9.074219 0 L 9.074219 -1.386719 L 3.171875 -1.386719 L 3.171875 -6.011719 L 8.3125 -6.011719 L 8.3125 -7.398438 L 3.171875 -7.398438 L 3.171875 -12.023438 Z M 9.074219 -12.023438 "/></g></g></g><g fill="#ff1616" fill-opacity="1"><g transform="translate(175.332551, 352.961871)"><g><path d="M 13.453125 -13.410156 L 8.292969 -1.722656 L 3.152344 -13.410156 L 1.632812 -13.410156 L 1.632812 0 L 3.0625 0 L 3.0625 -10.59375 L 7.6875 0 L 8.871094 0 L 13.542969 -10.550781 L 13.542969 0 L 14.953125 0 L 14.953125 -13.410156 Z M 13.453125 -13.410156 "/></g></g></g><g fill="#ff1616" fill-opacity="1"><g transform="translate(196.038494, 352.961871)"><g/></g></g><g fill="#ff1616" fill-opacity="1"><g transform="translate(205.552664, 352.961871)"><g><path d="M 7.980469 0.179688 C 10.550781 0.179688 12.785156 -1.230469 13.96875 -3.308594 L 12.738281 -4 C 11.824219 -2.347656 10.035156 -1.25 7.980469 -1.25 C 4.960938 -1.25 2.527344 -3.664062 2.527344 -6.703125 C 2.527344 -9.746094 4.960938 -12.160156 7.980469 -12.160156 C 10.035156 -12.160156 11.824219 -11.0625 12.738281 -9.410156 L 13.96875 -10.101562 C 12.785156 -12.179688 10.550781 -13.589844 7.980469 -13.589844 C 4.179688 -13.589844 1.09375 -10.503906 1.09375 -6.703125 C 1.09375 -2.90625 4.179688 0.179688 7.980469 0.179688 Z M 7.980469 0.179688 "/></g></g></g><g fill="#ff1616" fill-opacity="1"><g transform="translate(224.382142, 352.961871)"><g><path d="M 7.980469 0.179688 C 11.800781 0.179688 14.863281 -2.90625 14.863281 -6.703125 C 14.863281 -10.503906 11.800781 -13.589844 7.980469 -13.589844 C 4.179688 -13.589844 1.09375 -10.503906 1.09375 -6.703125 C 1.09375 -2.90625 4.179688 0.179688 7.980469 0.179688 Z M 7.980469 -1.25 C 4.960938 -1.25 2.527344 -3.664062 2.527344 -6.703125 C 2.527344 -9.746094 4.960938 -12.160156 7.980469 -12.160156 C 11.019531 -12.160156 13.433594 -9.746094 13.433594 -6.703125 C 13.433594 -3.664062 11.019531 -1.25 7.980469 -1.25 Z M 7.980469 -1.25 "/></g></g></g><g fill="#ff1616" fill-opacity="1"><g transform="translate(244.484935, 352.961871)"><g><path d="M 7.0625 -6.125 C 8.828125 -6.371094 10.167969 -7.84375 10.167969 -9.65625 C 10.167969 -11.757812 8.492188 -13.410156 6.4375 -13.410156 L 1.632812 -13.410156 L 1.632812 0 L 3.0625 0 L 3.0625 -6.058594 L 5.585938 -6.058594 L 9.386719 0 L 11.019531 0 Z M 3.0625 -7.421875 L 3.0625 -11.980469 L 6.347656 -11.980469 C 7.6875 -11.980469 8.738281 -11.039062 8.738281 -9.699219 C 8.738281 -8.335938 7.710938 -7.421875 6.347656 -7.421875 Z M 3.0625 -7.421875 "/></g></g></g><g fill="#ff1616" fill-opacity="1"><g transform="translate(259.82955, 352.961871)"><g><path d="M 6.4375 -13.410156 L 1.632812 -13.410156 L 1.632812 0 L 3.0625 0 L 3.0625 -5.96875 L 6.4375 -5.96875 C 8.515625 -5.96875 10.167969 -7.597656 10.167969 -9.675781 C 10.167969 -11.734375 8.515625 -13.410156 6.4375 -13.410156 Z M 6.300781 -7.332031 L 3.0625 -7.332031 L 3.0625 -12.023438 L 6.300781 -12.023438 C 7.644531 -12.023438 8.738281 -11.085938 8.738281 -9.65625 C 8.738281 -8.179688 7.644531 -7.332031 6.300781 -7.332031 Z M 6.300781 -7.332031 "/></g></g></g><g clip-path="url(#a216daaa46)"><path fill="#ff1616" d="M 116.792969 132 C 116.792969 93.097656 148.441406 61.449219 187.34375 61.449219 C 202.597656 61.449219 216.742188 66.320312 228.296875 74.582031 L 245.429688 57.453125 C 238.921875 52.367188 231.792969 48.171875 224.128906 44.933594 C 212.46875 40.003906 200.09375 37.5 187.34375 37.5 C 174.589844 37.5 162.214844 40.003906 150.554688 44.933594 C 139.300781 49.691406 129.195312 56.507812 120.523438 65.179688 C 111.847656 73.855469 105.035156 83.960938 100.277344 95.214844 C 95.34375 106.871094 92.84375 119.25 92.84375 132 C 92.84375 144.75 95.34375 157.128906 100.277344 168.785156 C 103.472656 176.34375 107.597656 183.382812 112.589844 189.820312 L 129.730469 172.679688 C 121.582031 161.175781 116.792969 147.136719 116.792969 132 " fill-opacity="1" fill-rule="nonzero"/></g><g clip-path="url(#191311456d)"><path fill="#ff1616" d="M 281.117188 120.210938 L 269.867188 120.210938 L 269.867188 120.027344 L 216.25 120.027344 L 192.300781 143.972656 L 256.875 143.972656 C 251.171875 177.191406 222.164062 202.550781 187.34375 202.550781 C 172.207031 202.550781 158.167969 197.757812 146.664062 189.613281 L 129.519531 206.753906 C 135.957031 211.746094 142.996094 215.871094 150.554688 219.066406 C 162.214844 223.996094 174.589844 226.5 187.34375 226.5 C 200.09375 226.5 212.46875 223.996094 224.128906 219.066406 C 235.382812 214.308594 245.488281 207.492188 254.160156 198.820312 C 262.835938 190.144531 269.648438 180.039062 274.40625 168.785156 C 279.339844 157.128906 281.839844 144.75 281.839844 132 C 281.839844 128.03125 281.597656 124.097656 281.117188 120.210938 " fill-opacity="1" fill-rule="nonzero"/></g><path fill="#ff1616" d="M 192.132812 186.628906 C 160.199219 186.628906 134.308594 160.742188 134.308594 128.808594 C 134.308594 109.753906 143.527344 92.851562 157.742188 82.316406 C 140.839844 92.410156 129.519531 110.882812 129.519531 132 C 129.519531 163.933594 155.410156 189.820312 187.34375 189.820312 C 200.222656 189.820312 212.117188 185.609375 221.730469 178.488281 C 213.074219 183.65625 202.949219 186.628906 192.132812 186.628906 " fill-opacity="1" fill-rule="nonzero"/></svg>