<svg xmlns="http://www.w3.org/2000/svg" xmlns:xlink="http://www.w3.org/1999/xlink" width="500" zoomAndPan="magnify" viewBox="0 0 375 374.999991" height="500" preserveAspectRatio="xMidYMid meet" version="1.0"><defs><clipPath id="fa1a940fc0"><path d="M 62.394531 62.394531 L 265 62.394531 L 265 265 L 62.394531 265 Z M 62.394531 62.394531 " clip-rule="nonzero"/></clipPath><clipPath id="483180926c"><path d="M 111 171 L 312.894531 171 L 312.894531 312.894531 L 111 312.894531 Z M 111 171 " clip-rule="nonzero"/></clipPath></defs><g clip-path="url(#fa1a940fc0)"><path fill="#ff1616" d="M 94.136719 187.644531 C 94.136719 136.085938 136.085938 94.136719 187.644531 94.136719 C 207.867188 94.136719 226.613281 100.589844 241.925781 111.546875 L 264.632812 88.839844 C 256.007812 82.101562 246.558594 76.542969 236.402344 72.246094 C 220.949219 65.714844 204.546875 62.398438 187.644531 62.398438 C 170.742188 62.398438 154.339844 65.714844 138.886719 72.246094 C 123.972656 78.554688 110.578125 87.585938 99.082031 99.082031 C 87.585938 110.582031 78.554688 123.972656 72.246094 138.886719 C 65.710938 154.339844 62.398438 170.742188 62.398438 187.644531 C 62.398438 204.546875 65.710938 220.949219 72.246094 236.402344 C 76.484375 246.421875 81.949219 255.75 88.566406 264.28125 L 111.285156 241.5625 C 100.488281 226.3125 94.136719 207.707031 94.136719 187.644531 " fill-opacity="1" fill-rule="nonzero"/></g><g clip-path="url(#483180926c)"><path fill="#ff1616" d="M 311.929688 172.019531 L 297.023438 172.019531 L 297.023438 171.773438 L 225.957031 171.773438 L 194.21875 203.515625 L 279.804688 203.515625 C 272.246094 247.542969 233.796875 281.152344 187.644531 281.152344 C 167.582031 281.152344 148.976562 274.800781 133.730469 264.003906 L 111.007812 286.722656 C 119.539062 293.339844 128.871094 298.804688 138.886719 303.042969 C 154.339844 309.578125 170.742188 312.890625 187.644531 312.890625 C 204.546875 312.890625 220.949219 309.578125 236.402344 303.042969 C 251.316406 296.734375 264.710938 287.703125 276.207031 276.207031 C 287.703125 264.710938 296.734375 251.316406 303.042969 236.402344 C 309.578125 220.949219 312.890625 204.546875 312.890625 187.644531 C 312.890625 182.382812 312.570312 177.171875 311.929688 172.019531 " fill-opacity="1" fill-rule="nonzero"/></g><path fill="#ff1616" d="M 193.992188 260.050781 C 151.667969 260.050781 117.355469 225.738281 117.355469 183.414062 C 117.355469 158.160156 129.570312 135.757812 148.414062 121.796875 C 126.011719 135.171875 111.007812 159.65625 111.007812 187.644531 C 111.007812 229.96875 145.320312 264.28125 187.644531 264.28125 C 204.714844 264.28125 220.484375 258.699219 233.222656 249.261719 C 221.746094 256.109375 208.328125 260.050781 193.992188 260.050781 " fill-opacity="1" fill-rule="nonzero"/></svg>