<svg xmlns="http://www.w3.org/2000/svg" xmlns:xlink="http://www.w3.org/1999/xlink" width="500" zoomAndPan="magnify" viewBox="0 0 375 374.999991" height="500" preserveAspectRatio="xMidYMid meet" version="1.0"><defs><clipPath id="15f4b39028"><path d="M 72.449219 65.824219 L 259 65.824219 L 259 252 L 72.449219 252 Z M 72.449219 65.824219 " clip-rule="nonzero"/></clipPath><clipPath id="2c1456a899"><path d="M 117 166 L 302.699219 166 L 302.699219 296.074219 L 117 296.074219 Z M 117 166 " clip-rule="nonzero"/></clipPath></defs><g clip-path="url(#15f4b39028)"><path fill="#ff1616" d="M 101.625 180.949219 C 101.625 133.558594 140.183594 95 187.574219 95 C 206.160156 95 223.390625 100.933594 237.46875 111 L 258.335938 90.128906 C 250.410156 83.9375 241.726562 78.828125 232.390625 74.878906 C 218.1875 68.875 203.109375 65.824219 187.574219 65.824219 C 172.039062 65.824219 156.960938 68.875 142.757812 74.878906 C 129.046875 80.675781 116.738281 88.976562 106.171875 99.546875 C 95.601562 110.113281 87.304688 122.421875 81.503906 136.132812 C 75.5 150.335938 72.453125 165.414062 72.453125 180.949219 C 72.453125 196.484375 75.5 211.5625 81.503906 225.765625 C 85.402344 234.972656 90.425781 243.546875 96.503906 251.390625 L 117.386719 230.507812 C 107.464844 216.492188 101.625 199.390625 101.625 180.949219 " fill-opacity="1" fill-rule="nonzero"/></g><g clip-path="url(#2c1456a899)"><path fill="#ff1616" d="M 301.8125 166.585938 L 288.109375 166.585938 L 288.109375 166.359375 L 222.789062 166.359375 L 193.617188 195.535156 L 272.285156 195.535156 C 265.335938 236.003906 229.996094 266.898438 187.574219 266.898438 C 169.132812 266.898438 152.03125 261.058594 138.015625 251.136719 L 117.132812 272.019531 C 124.976562 278.097656 133.550781 283.121094 142.757812 287.015625 C 156.960938 293.023438 172.039062 296.070312 187.574219 296.070312 C 203.109375 296.070312 218.1875 293.023438 232.390625 287.015625 C 246.101562 281.21875 258.410156 272.917969 268.976562 262.351562 C 279.542969 251.78125 287.84375 239.472656 293.644531 225.765625 C 299.648438 211.5625 302.699219 196.484375 302.699219 180.949219 C 302.699219 176.113281 302.398438 171.320312 301.8125 166.585938 " fill-opacity="1" fill-rule="nonzero"/></g><path fill="#ff1616" d="M 193.410156 247.5 C 154.503906 247.5 122.96875 215.960938 122.96875 177.058594 C 122.96875 153.847656 134.195312 133.257812 151.515625 120.421875 C 130.925781 132.71875 117.132812 155.222656 117.132812 180.949219 C 117.132812 219.851562 148.671875 251.390625 187.574219 251.390625 C 203.265625 251.390625 217.757812 246.257812 229.46875 237.582031 C 218.921875 243.878906 206.585938 247.5 193.410156 247.5 " fill-opacity="1" fill-rule="nonzero"/></svg>